# xmcd
#
# Track frame offsets:
# 150
# 15366
# 29604
# 45155
# 60396
# 78967
# 96350
# 110539
# 126891
# 141634
# 157376
# 173512
# 183640
# 197317
#
# Disc length: 2815 seconds
#
#
# Revision: 0
# Processed by: cddbd v1.4PL0 Copyright (c) Steve Scherf et al.
# Submitted via: FreeRIP 2.52 
#
DISCID=b60afd0e
DTITLE=JOHN STEVENS - FROM BOTH SIDES OF MY HEART
DYEAR=1900
DGENRE=Country
TTITLE0=YOU DESERVE WHAT I GOT
TTITLE1=MY SOUTHERN BELLE
TTITLE2=GO OUT OF YOUR WAY
TTITLE3=BOTH SIDES OF MY HEART
TTITLE4=JIMMYS SONG
TTITLE5=I WANNA GO SLOW
TTITLE6=BETWEEN YOU AND ME
TTITLE7=THIS TOWN AINT BIG ENOUGH
TTITLE8=VICTORIAS SECRET
TTITLE9=ONE MORE SHOT OF THAT STUFF
TTITLE10=BACK HOME
TTITLE11=I CAN'T ANSWER EVERYTHING
TTITLE12=I'LL DO ANYBODY BUT YOU
TTITLE13=WHITE CASTLE BLUES
EXTD=PLAYS AT BIG DOGS EVERY OTHER SUNDAY
EXTT0=
EXTT1=
EXTT2=
EXTT3=
EXTT4=
EXTT5=
EXTT6=
EXTT7=
EXTT8=
EXTT9=
EXTT10=
EXTT11=
EXTT12=
EXTT13=
PLAYORDER=
